HIERARCHY
ROOT Hips
{
	OFFSET 0.000000 100.481300 0.000000
	CHANNELS 6 Xposition Yposition Zposition Xrotation Yrotation Zrotation
	JOINT Spine
	{
		OFFSET -0.279200 12.230698 -2.892100
		CHANNELS 3 Xrotation Yrotation Zrotation
		JOINT Spine1
		{
			OFFSET -0.325700 14.269203 -3.374200
			CHANNELS 3 Xrotation Yrotation Zrotation
			JOINT Spine2
			{
				OFFSET -0.372300 16.307602 -0.352600
				CHANNELS 3 Xrotation Yrotation Zrotation
				JOINT Neck
				{
					OFFSET -0.418800 17.814194 8.416900
					CHANNELS 3 Xrotation Yrotation Zrotation
					JOINT Head
					{
						OFFSET 0.000000 7.031097 3.806800
						CHANNELS 3 Xrotation Yrotation Zrotation
						JOINT HeadTop_End
						{
							OFFSET 0.000000 24.646606 12.978600
							CHANNELS 3 Xrotation Yrotation Zrotation
							End Site
							{
								OFFSET 0.000000 27.854965 0.000000
							}
						}
					}
				}
				JOINT LeftShoulder
				{
					OFFSET 16.952999 14.495407 -7.737500
					CHANNELS 3 Xrotation Yrotation Zrotation
					JOINT LeftArm
					{
						OFFSET 9.308998 -2.777710 0.208600
						CHANNELS 3 Xrotation Yrotation Zrotation
						JOINT LeftForeArm
						{
							OFFSET 29.972298 0.000000 0.000000
							CHANNELS 3 Xrotation Yrotation Zrotation
							JOINT LeftHand
							{
								OFFSET 26.026505 0.000000 0.000000
								CHANNELS 3 Xrotation Yrotation Zrotation
								JOINT LeftHandThumb1
								{
									OFFSET 12.240501 -7.147949 9.207150
									CHANNELS 3 Xrotation Yrotation Zrotation
									JOINT LeftHandThumb2
									{
										OFFSET 4.138618 -2.389435 2.389433
										CHANNELS 3 Xrotation Yrotation Zrotation
										JOINT LeftHandThumb3
										{
											OFFSET 2.726913 -1.574387 1.574386
											CHANNELS 3 Xrotation Yrotation Zrotation
											JOINT LeftHandThumb4
											{
												OFFSET 3.941010 -2.275345 2.275342
												CHANNELS 3 Xrotation Yrotation Zrotation
												End Site
												{
													OFFSET -0.005798 5.087799 0.009903
												}
											}
										}
									}
								}
								JOINT LeftHandIndex1
								{
									OFFSET 24.424698 -1.985611 5.953459
									CHANNELS 3 Xrotation Yrotation Zrotation
									JOINT LeftHandIndex2
									{
										OFFSET 6.426697 0.000000 0.000000
										CHANNELS 3 Xrotation Yrotation Zrotation
										JOINT LeftHandIndex3
										{
											OFFSET 5.337898 0.000000 0.000000
											CHANNELS 3 Xrotation Yrotation Zrotation
											JOINT LeftHandIndex4
											{
												OFFSET 4.409401 0.000000 0.000000
												CHANNELS 3 Xrotation Yrotation Zrotation
												End Site
												{
													OFFSET 0.000000 4.409363 0.014373
												}
											}
										}
									}
								}
								JOINT LeftHandMiddle1
								{
									OFFSET 23.810104 0.000000 0.000000
									CHANNELS 3 Xrotation Yrotation Zrotation
									JOINT LeftHandMiddle2
									{
										OFFSET 7.176498 0.000000 0.000000
										CHANNELS 3 Xrotation Yrotation Zrotation
										JOINT LeftHandMiddle3
										{
											OFFSET 6.774902 0.000000 0.000000
											CHANNELS 3 Xrotation Yrotation Zrotation
											JOINT LeftHandMiddle4
											{
												OFFSET 5.403328 0.000000 0.000000
												CHANNELS 3 Xrotation Yrotation Zrotation
												End Site
												{
													OFFSET -0.027702 5.403244 0.017414
												}
											}
										}
									}
								}
								JOINT LeftHandRing1
								{
									OFFSET 22.908401 -0.839279 -6.020567
									CHANNELS 3 Xrotation Yrotation Zrotation
									JOINT LeftHandRing2
									{
										OFFSET 6.337502 0.000000 0.000000
										CHANNELS 3 Xrotation Yrotation Zrotation
										JOINT LeftHandRing3
										{
											OFFSET 5.779297 0.000000 0.000000
											CHANNELS 3 Xrotation Yrotation Zrotation
											JOINT LeftHandRing4
											{
												OFFSET 4.965698 0.000000 0.000000
												CHANNELS 3 Xrotation Yrotation Zrotation
												End Site
												{
													OFFSET 0.000000 4.965668 0.016186
												}
											}
										}
									}
								}
								JOINT LeftHandPinky1
								{
									OFFSET 20.037003 -1.530319 -10.950146
									CHANNELS 3 Xrotation Yrotation Zrotation
									JOINT LeftHandPinky2
									{
										OFFSET 5.254700 0.000000 0.000000
										CHANNELS 3 Xrotation Yrotation Zrotation
										JOINT LeftHandPinky3
										{
											OFFSET 4.810204 0.000000 0.000000
											CHANNELS 3 Xrotation Yrotation Zrotation
											JOINT LeftHandPinky4
											{
												OFFSET 3.647202 0.000000 0.000000
												CHANNELS 3 Xrotation Yrotation Zrotation
												End Site
												{
													OFFSET 0.000000 3.647186 0.011889
												}
											}
										}
									}
								}
							}
						}
					}
				}
				JOINT RightShoulder
				{
					OFFSET -15.141001 14.495407 -7.737500
					CHANNELS 3 Xrotation Yrotation Zrotation
					JOINT RightArm
					{
						OFFSET -9.308998 -2.777710 0.208500
						CHANNELS 3 Xrotation Yrotation Zrotation
						JOINT RightForeArm
						{
							OFFSET -29.972300 0.000000 0.000000
							CHANNELS 3 Xrotation Yrotation Zrotation
							JOINT RightHand
							{
								OFFSET -26.026505 0.000000 0.000000
								CHANNELS 3 Xrotation Yrotation Zrotation
								JOINT RightHandThumb1
								{
									OFFSET -12.240601 -7.148026 9.207092
									CHANNELS 3 Xrotation Yrotation Zrotation
									JOINT RightHandThumb2
									{
										OFFSET -4.138618 -2.389435 2.389433
										CHANNELS 3 Xrotation Yrotation Zrotation
										JOINT RightHandThumb3
										{
											OFFSET -2.726974 -1.574417 1.574421
											CHANNELS 3 Xrotation Yrotation Zrotation
											JOINT RightHandThumb4
											{
												OFFSET -3.941010 -2.275345 2.275343
												CHANNELS 3 Xrotation Yrotation Zrotation
												End Site
												{
													OFFSET 0.005814 5.087799 0.009927
												}
											}
										}
									}
								}
								JOINT RightHandIndex1
								{
									OFFSET -24.424698 -1.985657 5.953444
									CHANNELS 3 Xrotation Yrotation Zrotation
									JOINT RightHandIndex2
									{
										OFFSET -6.426697 0.000000 0.000000
										CHANNELS 3 Xrotation Yrotation Zrotation
										JOINT RightHandIndex3
										{
											OFFSET -5.337898 0.000000 0.000000
											CHANNELS 3 Xrotation Yrotation Zrotation
											JOINT RightHandIndex4
											{
												OFFSET -4.409401 0.000000 0.000000
												CHANNELS 3 Xrotation Yrotation Zrotation
												End Site
												{
													OFFSET 0.000000 4.409363 0.014408
												}
											}
										}
									}
								}
								JOINT RightHandMiddle1
								{
									OFFSET -23.810097 0.000000 0.000000
									CHANNELS 3 Xrotation Yrotation Zrotation
									JOINT RightHandMiddle2
									{
										OFFSET -7.176498 0.000000 0.000000
										CHANNELS 3 Xrotation Yrotation Zrotation
										JOINT RightHandMiddle3
										{
											OFFSET -6.774902 0.000000 0.000000
											CHANNELS 3 Xrotation Yrotation Zrotation
											JOINT RightHandMiddle4
											{
												OFFSET -5.403328 0.000000 0.000000
												CHANNELS 3 Xrotation Yrotation Zrotation
												End Site
												{
													OFFSET 0.027702 5.403244 0.017457
												}
											}
										}
									}
								}
								JOINT RightHandRing1
								{
									OFFSET -22.908302 -0.839325 -6.020576
									CHANNELS 3 Xrotation Yrotation Zrotation
									JOINT RightHandRing2
									{
										OFFSET -6.337502 0.000000 0.000000
										CHANNELS 3 Xrotation Yrotation Zrotation
										JOINT RightHandRing3
										{
											OFFSET -5.779297 0.000000 0.000000
											CHANNELS 3 Xrotation Yrotation Zrotation
											JOINT RightHandRing4
											{
												OFFSET -4.965698 0.000000 0.000000
												CHANNELS 3 Xrotation Yrotation Zrotation
												End Site
												{
													OFFSET 0.000000 4.965668 0.016226
												}
											}
										}
									}
								}
								JOINT RightHandPinky1
								{
									OFFSET -20.037003 -1.530334 -10.950259
									CHANNELS 3 Xrotation Yrotation Zrotation
									JOINT RightHandPinky2
									{
										OFFSET -5.254700 0.000000 0.000000
										CHANNELS 3 Xrotation Yrotation Zrotation
										JOINT RightHandPinky3
										{
											OFFSET -4.810204 0.000000 0.000000
											CHANNELS 3 Xrotation Yrotation Zrotation
											JOINT RightHandPinky4
											{
												OFFSET -3.647202 0.000000 0.000000
												CHANNELS 3 Xrotation Yrotation Zrotation
												End Site
												{
													OFFSET 0.000000 3.647186 0.011917
												}
											}
										}
									}
								}
							}
						}
					}
				}
			}
		}
	}
	JOINT LeftUpLeg
	{
		OFFSET 15.427100 -6.655098 0.678600
		CHANNELS 3 Xrotation Yrotation Zrotation
		JOINT LeftLeg
		{
			OFFSET 4.081073 -39.591068 13.024000
			CHANNELS 3 Xrotation Yrotation Zrotation
			JOINT LeftFoot
			{
				OFFSET -4.081074 -37.707932 -15.979700
				CHANNELS 3 Xrotation Yrotation Zrotation
				JOINT LeftToeBase
				{
					OFFSET 5.346399 -15.068900 20.645000
					CHANNELS 3 Xrotation Yrotation Zrotation
					JOINT LeftToe_End
					{
						OFFSET 2.754700 0.931300 11.300900
						CHANNELS 3 Xrotation Yrotation Zrotation
						End Site
						{
							OFFSET 0.000000 11.669021 0.000000
						}
					}
				}
			}
		}
	}
	JOINT RightUpLeg
	{
		OFFSET -15.569500 -6.655098 0.678600
		CHANNELS 3 Xrotation Yrotation Zrotation
		JOINT RightLeg
		{
			OFFSET -4.081825 -39.591045 13.023800
			CHANNELS 3 Xrotation Yrotation Zrotation
			JOINT RightFoot
			{
				OFFSET 4.081824 -37.707954 -15.979600
				CHANNELS 3 Xrotation Yrotation Zrotation
				JOINT RightToeBase
				{
					OFFSET -5.346400 -15.068900 20.645000
					CHANNELS 3 Xrotation Yrotation Zrotation
					JOINT RightToe_End
					{
						OFFSET -2.754700 0.931300 11.300900
						CHANNELS 3 Xrotation Yrotation Zrotation
						End Site
						{
							OFFSET 0.000000 11.669021 0.000000
						}
					}
				}
			}
		}
	}
}
MOTION
Frames: 4
Frame Time: 0.033333
2.117015 90.960228 2.585002 2.269959 2.945630 0.145419 -0.942881 -0.226361 -3.147914 -1.783415 -1.077567 -0.450473 -1.794444 -1.059906 -0.448687 -5.165817 1.282231 1.343959 -0.458310 7.667213 4.312613 0.000001 -0.000001 0.000000 0.370358 1.563951 -4.696406 -39.699109 -25.050426 -0.842390 0.000005 -0.000011 -0.000000 35.118435 3.663637 2.829576 -1.540036 3.690191 6.142350 3.946763 7.971393 0.752845 -0.575600 1.586254 2.542380 0.000000 0.000000 -0.000001 0.119663 1.280677 -10.675563 0.119662 1.280672 -10.675562 0.164993 1.501265 -12.542797 0.000000 0.000001 0.000002 -0.000001 -0.001928 0.015974 0.000000 0.001930 -0.015993 -0.000001 0.000001 -0.000004 0.000001 0.000001 -0.000001 -0.000001 0.000001 -0.000004 0.000000 -0.000001 -0.000007 -0.000001 0.000001 -0.000005 -0.000000 -0.000000 -0.000000 1.665554 6.070959 -18.393331 0.370824 -1.829239 -19.293816 0.445276 2.440257 -20.679130 -0.000000 -0.000001 -0.000003 0.031163 -5.013716 2.138116 -40.058165 0.555694 -11.357063 -0.000010 11.273136 -0.000005 23.524602 -19.057707 -9.706536 -1.849256 -3.581802 -6.586136 4.645029 -8.656770 -0.231326 -1.269838 0.126085 -2.098667 -0.000003 -0.000001 -0.000002 0.104081 -1.201039 9.905928 0.104095 -1.201024 9.905927 0.132121 -1.351778 11.164712 -0.000001 -0.000001 0.000000 -0.000001 -0.000003 -0.000003 -0.000001 -0.000000 0.000019 -0.000002 -0.000001 0.000009 0.000001 0.000000 0.000001 -0.000007 -0.000001 -0.000012 0.000004 -0.000001 0.000026 0.000003 -0.000003 0.000010 -0.000000 -0.000003 -0.000001 0.173480 -1.546555 12.799737 0.173479 -1.546560 12.799737 0.209107 -1.695685 14.058909 -0.000000 -0.000000 0.000002 -16.558983 4.208764 -4.523789 38.485141 8.586696 0.814960 -9.186380 -1.135639 1.129248 -18.970690 -0.000002 -0.000000 0.000000 -0.000001 0.000000 -5.284090 -5.023746 2.678600 31.609835 -10.423109 -0.903257 -26.322287 -2.723087 -14.485335 -2.305516 -0.000045 0.079947 0.000000 -0.000000 -0.000002 
2.096215 88.791679 1.505462 2.111908 3.795598 1.308162 -0.875980 -0.267859 -4.503469 -1.623079 -1.425225 -0.650719 -1.639325 -1.407750 -0.648458 -5.017884 1.216856 1.539139 -1.069122 7.649524 4.009032 0.000000 -0.000001 -0.000000 0.361910 1.490989 -4.427705 -39.693890 -25.632546 -1.503956 0.000000 -0.000012 -0.000001 35.773119 4.419678 1.809375 -1.540036 3.690191 6.142351 3.946764 7.971393 0.752846 -0.575600 1.586253 2.542378 -0.000000 -0.000000 0.000000 0.126704 1.317475 -10.986171 0.126701 1.317473 -10.986177 0.169086 1.519543 -12.698137 -0.000000 -0.000001 -0.000001 -0.000000 -0.001926 0.015974 0.000000 0.001929 -0.015993 -0.000000 0.000001 -0.000005 -0.000000 0.000002 0.000000 -0.000000 0.000001 -0.000004 -0.000000 -0.000000 -0.000007 -0.000000 0.000003 -0.000007 0.000001 0.000001 0.000000 1.698756 6.099298 -18.706514 0.383303 -1.793912 -19.603869 0.451920 2.457775 -20.834640 0.000000 0.000000 0.000002 0.081829 -4.896969 2.726136 -39.346876 0.298052 -12.351291 0.000002 11.723527 0.000001 20.647165 -19.607573 -10.277158 -1.849253 -3.581802 -6.586138 4.645033 -8.656772 -0.231320 -1.269837 0.126081 -2.098672 0.000002 0.000003 0.000002 0.103782 -1.199234 9.890983 0.103773 -1.199229 9.890973 0.131950 -1.350882 11.157234 0.000001 0.000001 -0.000000 0.000002 -0.000003 -0.000001 0.000001 -0.000000 0.000020 -0.000003 -0.000002 0.000012 0.000001 -0.000001 -0.000000 -0.000002 -0.000001 -0.000010 0.000004 -0.000001 0.000024 0.000002 -0.000001 0.000007 -0.000001 0.000000 -0.000002 0.173076 -1.544780 12.784790 0.173082 -1.544773 12.784785 0.208883 -1.694804 14.051429 -0.000003 0.000001 0.000001 -16.557550 4.496373 -6.218639 39.007514 6.180222 0.469405 -14.756012 -1.489510 2.445134 -10.274987 0.000005 -0.000001 0.000000 -0.000001 -0.000000 -10.830336 -4.802601 1.244134 39.475488 -10.629264 -0.876271 -27.891330 -2.457397 -14.980178 -1.276822 -0.006041 0.869098 -0.000000 -0.000000 -0.000001 
2.185254 88.695488 1.109257 1.363959 3.961627 2.308607 -0.779611 -0.297942 -5.901824 -1.390299 -1.518891 -0.809752 -1.410348 -1.502063 -0.807168 -4.711612 1.162911 1.685368 -0.933075 7.608618 3.831918 -0.000001 0.000000 -0.000000 0.364768 1.388056 -4.383940 -40.483880 -26.632436 -2.388607 -0.000001 -0.000010 -0.000000 36.020925 5.179895 0.973884 -1.540035 3.690189 6.142349 3.946762 7.971394 0.752844 -0.575600 1.586254 2.542377 -0.000000 0.000000 -0.000001 0.130914 1.338974 -11.167815 0.130915 1.338973 -11.167813 0.171503 1.530227 -12.788971 -0.000000 -0.000000 0.000003 0.000001 -0.001929 0.015973 0.000001 0.001929 -0.015994 -0.000001 0.000003 -0.000007 0.000001 -0.000000 -0.000000 0.000001 -0.000001 -0.000005 0.000002 -0.000001 -0.000008 -0.000000 0.000001 -0.000006 0.000000 0.000002 0.000001 1.718243 6.115783 -18.889668 0.390691 -1.773281 -19.785171 0.455827 2.468007 -20.925596 0.000000 -0.000000 0.000001 0.127677 -4.755128 3.244759 -39.164192 0.389420 -13.119998 -0.000016 11.288691 -0.000006 19.985101 -19.300831 -10.098183 -1.849251 -3.581803 -6.586134 4.645033 -8.656767 -0.231321 -1.269835 0.126084 -2.098667 0.000001 0.000001 -0.000002 0.105202 -1.207403 9.959042 0.105210 -1.207405 9.959034 0.132754 -1.354941 11.191269 0.000001 -0.000001 -0.000000 0.000003 -0.000004 -0.000001 0.000001 -0.000001 0.000019 -0.000005 -0.000003 0.000011 0.000000 -0.000002 0.000003 -0.000001 -0.000001 -0.000009 0.000003 -0.000002 0.000023 0.000002 -0.000001 0.000011 -0.000000 -0.000001 0.000000 0.174917 -1.552871 12.852858 0.174918 -1.552858 12.852862 0.209891 -1.698817 14.085474 -0.000001 -0.000001 -0.000001 -15.571040 5.774299 -6.976761 38.316531 4.961972 0.404244 -14.996659 -1.331288 2.703631 -9.101401 -0.000004 -0.000000 0.000000 0.000001 -0.000000 -18.204563 -4.938421 -0.457884 45.697596 -10.780707 -0.721495 -25.156997 -0.050773 -16.858129 -0.155285 -0.000002 0.000012 0.000000 0.000000 -0.000001 
2.326762 92.015404 1.824623 0.490713 4.291606 1.324346 -0.749969 -0.681297 -5.273075 -1.242451 -1.602274 -0.478445 -1.259107 -1.590619 -0.474699 -4.389696 1.125704 1.841095 -0.532577 7.665091 3.700582 0.000001 0.000001 -0.000000 0.359795 1.396094 -4.275447 -41.796277 -27.709529 -3.439207 0.000004 -0.000009 -0.000000 36.143961 5.748861 0.836430 -1.540035 3.690192 6.142351 3.946763 7.971394 0.752844 -0.575600 1.586253 2.542378 -0.000000 -0.000000 0.000000 0.126329 1.315537 -10.969843 0.126329 1.315543 -10.969841 0.168867 1.518581 -12.689977 -0.000000 -0.000000 0.000001 0.000000 -0.001927 0.015973 0.000002 0.001930 -0.015993 -0.000001 0.000002 -0.000005 -0.000000 0.000002 0.000000 -0.000000 0.000001 -0.000005 0.000001 0.000000 -0.000008 -0.000002 -0.000000 -0.000005 -0.000000 0.000001 0.000000 1.697006 6.097811 -18.690048 0.382643 -1.795766 -19.587564 0.451571 2.456856 -20.826480 -0.000001 0.000000 -0.000003 0.145326 -4.687240 3.439156 -39.584754 0.771882 -13.738416 -0.000006 9.958188 0.000006 22.155926 -17.642778 -11.107963 -1.849253 -3.581803 -6.586138 4.645030 -8.656770 -0.231323 -1.269841 0.126082 -2.098667 -0.000001 -0.000003 -0.000002 0.102954 -1.194529 9.851790 0.102959 -1.194530 9.851785 0.131487 -1.348530 11.137640 -0.000001 0.000001 0.000000 0.000002 -0.000003 -0.000002 0.000001 -0.000001 0.000019 -0.000002 -0.000001 0.000011 0.000001 0.000002 0.000001 -0.000002 -0.000001 -0.000010 0.000003 -0.000000 0.000027 -0.000000 0.000001 0.000012 -0.000000 -0.000001 0.000001 0.172027 -1.540123 12.745600 0.172022 -1.540127 12.745585 0.208294 -1.692488 14.031826 -0.000002 0.000001 -0.000000 -12.625698 7.495097 -5.667581 33.223263 3.859266 0.682213 -8.836369 -1.327431 4.064554 -13.977172 -0.000004 0.000001 -0.000000 -0.000001 0.000000 -26.611395 -5.661906 -1.046446 45.565698 -10.633388 -0.460133 -14.420228 2.178632 -16.911574 0.273340 0.000003 -0.000008 0.000001 0.000000 -0.000001 
